<svg width="88" height="80" viewBox="0 0 88 80" fill="none" xmlns="http://www.w3.org/2000/svg">
  <rect width="88" height="80" rx="7" fill="var(--genie-color-bg-container)" />
  <path
    d="M17.1942 15H10.3657C9.61144 15 9 15.6114 9 16.3657V23.1942C9 23.9484 9.61144 24.5599 10.3657 24.5599H17.1942C17.9484 24.5599 18.5599 23.9484 18.5599 23.1942V16.3657C18.5599 15.6114 17.9484 15 17.1942 15Z"
    fill="var(--ant-color-primary)" />
  <path
    d="M16.4473 17.6309H15.9812C15.9158 17.6309 15.8538 17.6609 15.8138 17.7122L13.0644 21.1951L11.746 19.5247C11.7054 19.4734 11.644 19.4433 11.5787 19.4433H11.1125C11.0679 19.4433 11.0432 19.4947 11.0705 19.5294L12.897 21.8433C12.9824 21.9513 13.1464 21.9513 13.2324 21.8433L16.4893 17.7162C16.5167 17.6822 16.492 17.6309 16.4473 17.6309Z"
    fill="var(--ant-color-bg-container)" stroke="var(--ant-color-bg-container)" stroke-width="0.569041" />
  <path
    d="M17.1942 35.4844H10.3657C9.61144 35.4844 9 36.0958 9 36.8501V43.6786C9 44.4328 9.61144 45.0443 10.3657 45.0443H17.1942C17.9484 45.0443 18.5599 44.4328 18.5599 43.6786V36.8501C18.5599 36.0958 17.9484 35.4844 17.1942 35.4844Z"
    fill="var(--ant-color-bg-container)" stroke="var(--ant-color-border)" stroke-width="0.682849" />
  <path
    d="M17.1942 55.9707H10.3657C9.61144 55.9707 9 56.5821 9 57.3364V64.1649C9 64.9192 9.61144 65.5306 10.3657 65.5306H17.1942C17.9484 65.5306 18.5599 64.9192 18.5599 64.1649V57.3364C18.5599 56.5821 17.9484 55.9707 17.1942 55.9707Z"
    fill="var(--genie-color-bg-container)" stroke="var(--ant-color-border)" stroke-width="0.682849" />
  <path d="M79.3335 35.4863H24.7056V45.0462H79.3335V35.4863Z" fill="var(--ant-color-border)" />
  <path d="M79.3335 15H24.7056V24.5599H79.3335V15Z" fill="var(--ant-color-border)" />
  <path d="M79.3335 55.9707H24.7056V65.5306H79.3335V55.9707Z" fill="var(--ant-color-border)" />
</svg>
