<svg width="88" height="80" viewBox="0 0 88 80" fill="none" xmlns="http://www.w3.org/2000/svg">
  <rect width="88" height="80" rx="7" fill="var(--genie-color-bg-container)" />
  <path
    d="M68.1506 54.0187H19.9268C17.3164 54.0187 15.1895 51.866 15.1895 49.2299V17.9314C15.1895 15.2953 17.3229 13.1426 19.9268 13.1426H68.1506C70.7545 13.1426 72.8879 15.2953 72.8879 17.9314V49.2299C72.8879 51.866 70.7545 54.0187 68.1506 54.0187Z"
    fill="var(--ant-color-border)" />
  <path
    d="M68.1121 66.9152H19.8818C17.2779 66.9152 15.1445 64.7625 15.1445 62.1264V26.0391H72.843V62.1264C72.8559 64.7561 70.7225 66.9152 68.1121 66.9152Z"
    fill="var(--ant-color-bg-elevated)" />
  <path
    d="M19 21.2037C19 21.8675 19.5414 22.4089 20.2053 22.4089C20.8691 22.4089 21.4105 21.8675 21.4105 21.2037C21.4105 20.7718 21.1785 20.3787 20.8111 20.1595C20.4373 19.9468 19.9797 19.9468 19.6059 20.1595C19.232 20.3722 19 20.7718 19 21.2037ZM23.0863 21.3197C23.0863 21.9835 23.6277 22.525 24.2916 22.525C24.9555 22.525 25.4969 21.9835 25.4969 21.3197C25.4969 20.6558 24.9555 20.1144 24.2916 20.1144C23.6277 20.1209 23.0863 20.6558 23.0863 21.3197ZM26.3928 21.2617C26.3928 21.9255 26.9342 22.4669 27.598 22.4669C28.2619 22.4669 28.8033 21.9255 28.8033 21.2617C28.8033 20.5978 28.2619 20.0564 27.598 20.0564C26.9277 20.0628 26.3928 20.5978 26.3928 21.2617ZM23.2604 31.1166H21.3461C20.766 31.1166 20.302 30.5751 20.302 29.9113C20.302 29.2474 20.7725 28.706 21.3461 28.706H23.2604C23.8404 28.706 24.3045 29.2474 24.3045 29.9113C24.3109 30.5751 23.8404 31.1166 23.2604 31.1166Z"
    fill="var(--ant-color-bg-container)" />
  <path
    d="M31.8375 32.8008H28.0154C27.3129 32.8008 26.7393 32.2336 26.7393 31.5439C26.7393 30.8543 27.3129 30.2871 28.0154 30.2871H31.8375C32.54 30.2871 33.1137 30.8543 33.1137 31.5439C33.1137 32.2336 32.54 32.8008 31.8375 32.8008ZM33.0621 37.551H31.2059C30.5033 37.551 29.9297 36.9838 29.9297 36.2941C29.9297 35.6045 30.5033 35.0373 31.2059 35.0373H33.0621C33.7646 35.0373 34.3383 35.6045 34.3383 36.2941C34.3383 36.9902 33.7582 37.551 33.0621 37.551ZM35.8852 42.3076H34.1127C33.4102 42.3076 32.8365 41.7404 32.8365 41.0508C32.8365 40.3611 33.4102 39.7939 34.1127 39.7939H35.8852C36.5877 39.7939 37.1613 40.3611 37.1613 41.0508C37.1613 41.7404 36.5877 42.3076 35.8852 42.3076Z"
    fill="var(--ant-color-primary)" />
  <path
    d="M48.0479 42.9066H41.3254C40.7518 42.9066 40.2812 42.3652 40.2812 41.7014C40.2812 41.0375 40.7518 40.4961 41.3254 40.4961H48.0479C48.6215 40.4961 49.092 41.0375 49.092 41.7014C49.092 42.3652 48.6215 42.9066 48.0479 42.9066Z"
    fill="var(--ant-color-success)" />
  <path
    d="M58.4183 43.0684H54.7702C54.0226 43.0684 53.4167 42.4754 53.4167 41.7471C53.4167 41.0188 54.0226 40.4258 54.7702 40.4258H58.4183C59.1659 40.4258 59.7718 41.0188 59.7718 41.7471C59.7718 42.4754 59.1595 43.0684 58.4183 43.0684ZM66.4169 47.6639H57.9478C57.2001 47.6639 56.5942 47.0709 56.5942 46.3426C56.5942 45.6143 57.2001 45.0213 57.9478 45.0213H66.4169C67.1645 45.0213 67.7704 45.6143 67.7704 46.3426C67.7704 47.0645 67.1581 47.6639 66.4169 47.6639ZM57.8317 53.0586H53.7776C53.03 53.0586 52.4241 52.4656 52.4241 51.7373C52.4241 51.009 53.03 50.416 53.7776 50.416H57.8317C58.5794 50.416 59.1853 51.009 59.1853 51.7373C59.1853 52.4656 58.5729 53.0586 57.8317 53.0586ZM53.1395 58.0602H49.0854C48.3378 58.0602 47.7319 57.4672 47.7319 56.7389C47.7319 56.0106 48.3378 55.4176 49.0854 55.4176H53.1395C53.8872 55.4176 54.4931 56.0106 54.4931 56.7389C54.4931 57.4672 53.8872 58.0602 53.1395 58.0602ZM66.4169 43.0684H62.7688C62.0212 43.0684 61.4153 42.4754 61.4153 41.7471C61.4153 41.0188 62.0212 40.4258 62.7688 40.4258H66.4169C67.1645 40.4258 67.7704 41.0188 67.7704 41.7471C67.7704 42.4754 67.1581 43.0684 66.4169 43.0684ZM65.9722 53.0586H64.7991C64.0515 53.0586 63.4456 52.4656 63.4456 51.7373C63.4456 51.009 64.0515 50.416 64.7991 50.416H65.9722C66.7198 50.416 67.3257 51.009 67.3257 51.7373C67.3257 52.4656 66.7198 53.0586 65.9722 53.0586Z"
    fill="var(--ant-color-text)" />
  <path
    d="M46.5909 37.3961H38.1927C37.4708 37.3961 36.8843 36.8096 36.8843 36.0877C36.8843 35.3658 37.4708 34.7793 38.1927 34.7793H46.5909C47.3128 34.7793 47.8993 35.3658 47.8993 36.0877C47.8993 36.8096 47.3128 37.3961 46.5909 37.3961ZM49.2013 46.9094H40.803C40.0812 46.9094 39.4946 46.3229 39.4946 45.601C39.4946 44.8791 40.0812 44.2926 40.803 44.2926H49.2013C49.9231 44.2926 50.5097 44.8791 50.5097 45.601C50.5032 46.3164 49.9167 46.9094 49.2013 46.9094ZM49.2013 52.259H40.803C40.0812 52.259 39.4946 51.6725 39.4946 50.9506C39.4946 50.2287 40.0812 49.6422 40.803 49.6422H49.2013C49.9231 49.6422 50.5097 50.2287 50.5097 50.9506C50.5032 51.6725 49.9167 52.259 49.2013 52.259ZM42.8462 57.2154H40.803C40.0812 57.2154 39.4946 56.6289 39.4946 55.907C39.4946 55.1852 40.0812 54.5986 40.803 54.5986H42.8462C43.5681 54.5986 44.1546 55.1852 44.1546 55.907C44.1481 56.6289 43.5616 57.2154 42.8462 57.2154Z"
    fill="var(--ant-color-success)" />
  <path
    d="M37.7481 46.0969H36.2657C35.705 46.0969 35.2474 45.6328 35.2474 45.0592C35.2474 44.4855 35.705 44.0215 36.2657 44.0215H37.7481C38.3089 44.0215 38.7665 44.4855 38.7665 45.0592C38.7665 45.6328 38.3089 46.0969 37.7481 46.0969ZM37.7481 50.0221H36.2657C35.705 50.0221 35.2474 49.558 35.2474 48.9844C35.2474 48.4107 35.705 47.9467 36.2657 47.9467H37.7481C38.3089 47.9467 38.7665 48.4107 38.7665 48.9844C38.7665 49.5516 38.3089 50.0221 37.7481 50.0221ZM35.5181 53.9408H33.7263C33.1655 53.9408 32.7079 53.4768 32.7079 52.9031C32.7079 52.3295 33.1655 51.8654 33.7263 51.8654H35.5181C36.0788 51.8654 36.5364 52.3295 36.5364 52.9031C36.53 53.4768 36.0724 53.9408 35.5181 53.9408ZM34.0099 57.6404H30.9612C30.4005 57.6404 29.9429 57.1764 29.9429 56.6027C29.9429 56.0291 30.4005 55.565 30.9612 55.565H34.0099C34.5706 55.565 35.0282 56.0291 35.0282 56.6027C35.0282 57.1764 34.5706 57.6404 34.0099 57.6404Z"
    fill="var(--ant-color-primary)" />
  <path
    d="M23.0207 37.3902H20.3459C19.5402 37.3902 18.8828 36.7844 18.8828 36.0496C18.8828 35.3148 19.5402 34.709 20.3459 34.709H23.0207C23.8264 34.709 24.4838 35.3148 24.4838 36.0496C24.4838 36.7844 23.8264 37.3902 23.0207 37.3902ZM23.0207 42.4627H20.3459C19.5402 42.4627 18.8828 41.8568 18.8828 41.1221C18.8828 40.3873 19.5402 39.7814 20.3459 39.7814H23.0207C23.8264 39.7814 24.4838 40.3873 24.4838 41.1221C24.4838 41.8568 23.8264 42.4627 23.0207 42.4627ZM23.0207 47.5352H20.3459C19.5402 47.5352 18.8828 46.9293 18.8828 46.1945C18.8828 45.4533 19.5402 44.8539 20.3459 44.8539H23.0207C23.8264 44.8539 24.4838 45.4598 24.4838 46.1945C24.4838 46.9293 23.8264 47.5352 23.0207 47.5352ZM23.0207 52.6076H20.3459C19.5402 52.6076 18.8828 52.0018 18.8828 51.267C18.8828 50.5258 19.5402 49.9264 20.3459 49.9264H23.0207C23.8264 49.9264 24.4838 50.5322 24.4838 51.267C24.4838 52.0018 23.8264 52.6076 23.0207 52.6076ZM23.0207 57.6801H20.3459C19.5402 57.6801 18.8828 57.0742 18.8828 56.3395C18.8828 55.5982 19.5402 54.9988 20.3459 54.9988H23.0207C23.8264 54.9988 24.4838 55.6047 24.4838 56.3395C24.4838 57.0742 23.8264 57.6801 23.0207 57.6801ZM23.0207 62.7525H20.3459C19.5402 62.7525 18.8828 62.1467 18.8828 61.4119C18.8828 60.6771 19.5402 60.0713 20.3459 60.0713H23.0207C23.8264 60.0713 24.4838 60.6771 24.4838 61.4119C24.4838 62.1467 23.8264 62.7525 23.0207 62.7525Z"
    fill="var(--ant-color-border)" />
</svg>
