<svg width="88" height="80" viewBox="0 0 88 80" fill="none" xmlns="http://www.w3.org/2000/svg">
  <rect width="88" height="80" rx="7" fill="var(--genie-color-bg-container)" />
  <path
    d="M83.0425 33.3164H8.95848C8.60576 33.3164 8.31982 33.6023 8.31982 33.9551V51.8374C8.31982 52.1901 8.60576 52.4761 8.95848 52.4761H83.0425C83.3952 52.4761 83.6812 52.1901 83.6812 51.8374V33.9551C83.6812 33.6023 83.3952 33.3164 83.0425 33.3164Z"
    fill="var(--ant-color-bg-container)" />
  <path opacity="0.15"
    d="M80.1681 33H11.8319C9.71561 33 8 34.7156 8 36.8319V48.9664C8 51.0827 9.71561 52.7983 11.8319 52.7983H80.1681C82.2844 52.7983 84 51.0827 84 48.9664V36.8319C84 34.7156 82.2844 33 80.1681 33Z"
    stroke="var(--ant-color-border)" stroke-width="0.638656" />
  <path
    d="M15.9344 38.8223H16.3993V47.7635H15.9344V38.8223ZM17.5759 38.8223H18.0408V47.7635H17.5759V38.8223ZM19.2174 38.8223H19.6824V47.7635H19.2174V38.8223ZM20.859 38.8223H21.3239V47.7635H20.859V38.8223ZM22.5005 38.8223H22.9655V47.7635H22.5005V38.8223ZM24.1421 38.8223H24.607V47.7635H24.1421V38.8223ZM25.7836 38.8223H26.2486V47.7635H25.7836V38.8223ZM27.4252 38.8223H27.8901V47.7635H27.4252V38.8223ZM29.0667 38.8223H29.5317V47.7635H29.0667V38.8223ZM30.7083 38.8223H31.1732V47.7635H30.7083V38.8223ZM32.3498 38.8223H32.8147V47.7635H32.3498V38.8223ZM33.9913 38.8223H34.4563V47.7635H33.9913V38.8223ZM35.6329 38.8223H36.0978V47.7635H35.6329V38.8223ZM37.2744 38.8223H37.7394V47.7635H37.2744V38.8223ZM38.916 38.8223H39.3809V47.7635H38.916V38.8223ZM40.5575 38.8223H41.0225V47.7635H40.5575V38.8223ZM42.1991 38.8223H42.664V47.7635H42.1991V38.8223ZM43.8406 38.8223H44.3055V47.7635H43.8406V38.8223ZM45.4822 38.8223H45.9471V47.7635H45.4822V38.8223Z"
    fill="var(--ant-color-text)" />
  <g opacity="0.65">
    <path
      d="M77.9525 40.033H76.4856V39.4741C76.4856 39.4357 76.4541 39.4043 76.4157 39.4043H75.9267C75.8883 39.4043 75.8569 39.4357 75.8569 39.4741V40.033H73.6216V39.4741C73.6216 39.4357 73.5901 39.4043 73.5517 39.4043H73.0628C73.0243 39.4043 72.9929 39.4357 72.9929 39.4741V40.033H71.526C71.3714 40.033 71.2466 40.1578 71.2466 40.3124V46.1102C71.2466 46.2647 71.3714 46.3896 71.526 46.3896H77.9525C78.107 46.3896 78.2319 46.2647 78.2319 46.1102V40.3124C78.2319 40.1578 78.107 40.033 77.9525 40.033ZM77.6032 45.7609H71.8753V42.4429H77.6032V45.7609ZM71.8753 41.8491V40.6616H72.9929V41.0808C72.9929 41.1192 73.0243 41.1506 73.0628 41.1506H73.5517C73.5901 41.1506 73.6216 41.1192 73.6216 41.0808V40.6616H75.8569V41.0808C75.8569 41.1192 75.8883 41.1506 75.9267 41.1506H76.4157C76.4541 41.1506 76.4856 41.1192 76.4856 41.0808V40.6616H77.6032V41.8491H71.8753Z"
      fill="var(--ant-color-primary)" />
  </g>
</svg>
