<svg width="88" height="80" viewBox="0 0 88 80" fill="none" xmlns="http://www.w3.org/2000/svg">
  <rect width="88" height="80" rx="7" fill="var(--genie-color-bg-container)" />
  <rect x="6.5" y="28.5" width="75" height="23" rx="3.5" fill="var(--ant-color-bg-container)"
    stroke="var(--ant-color-border)" />
  <path
    d="M12.6406 41.6953C12.6211 41.4336 12.6113 41.168 12.6113 40.8984C12.6113 40.6289 12.6211 40.3652 12.6406 40.1074C12.6641 39.8457 12.7031 39.5684 12.7578 39.2754C12.8164 38.9785 12.8906 38.7051 12.9805 38.4551C13.0742 38.2012 13.1953 37.957 13.3438 37.7227C13.4961 37.4844 13.6699 37.2812 13.8652 37.1133C14.0605 36.9453 14.2969 36.8125 14.5742 36.7148C14.8555 36.6133 15.1641 36.5625 15.5 36.5625C15.8359 36.5625 16.1426 36.6133 16.4199 36.7148C16.7012 36.8125 16.9395 36.9453 17.1348 37.1133C17.3301 37.2812 17.5039 37.4844 17.6562 37.7227C17.8086 37.957 17.9297 38.2012 18.0195 38.4551C18.1094 38.709 18.1836 38.9824 18.2422 39.2754C18.3008 39.5684 18.3398 39.8457 18.3594 40.1074C18.3828 40.3652 18.3945 40.6289 18.3945 40.8984C18.3945 41.168 18.3828 41.4336 18.3594 41.6953C18.3398 41.9531 18.3008 42.2285 18.2422 42.5215C18.1836 42.8145 18.1094 43.0879 18.0195 43.3418C17.9297 43.5918 17.8086 43.8359 17.6562 44.0742C17.5039 44.3125 17.3301 44.5156 17.1348 44.6836C16.9395 44.8477 16.7012 44.9785 16.4199 45.0762C16.1426 45.1777 15.8359 45.2285 15.5 45.2285C15.1641 45.2285 14.8555 45.1777 14.5742 45.0762C14.2969 44.9785 14.0605 44.8477 13.8652 44.6836C13.6699 44.5156 13.4961 44.3125 13.3438 44.0742C13.1953 43.8359 13.0742 43.5918 12.9805 43.3418C12.8906 43.0879 12.8164 42.8145 12.7578 42.5215C12.7031 42.2285 12.6641 41.9531 12.6406 41.6953ZM14.1699 38.3965C13.8809 38.9824 13.7363 39.8164 13.7363 40.8984C13.7363 41.9805 13.8809 42.8145 14.1699 43.4004C14.4629 43.9863 14.9062 44.2793 15.5 44.2793C16.0938 44.2793 16.5352 43.9863 16.8242 43.4004C17.1172 42.8145 17.2637 41.9805 17.2637 40.8984C17.2637 39.8164 17.1172 38.9824 16.8242 38.3965C16.5352 37.8066 16.0938 37.5117 15.5 37.5117C14.9062 37.5117 14.4629 37.8066 14.1699 38.3965Z"
    fill="var(--ant-color-text)" fill-opacity="0.4" />
  <path d="M69 38L72.5 34.5L76 38" stroke="var(--ant-color-text)" stroke-opacity="0.4" />
  <path d="M76 42L72.5 45.5L69 42" stroke="var(--ant-color-text)" stroke-opacity="0.4" />
</svg>
