<svg width="88" height="80" viewBox="0 0 88 80" fill="none" xmlns="http://www.w3.org/2000/svg">
  <rect width="88" height="80" rx="7" fill="var(--genie-color-bg-container)" />
  <rect x="6.5" y="28.5" width="75" height="23" rx="3.5" fill="var(--ant-color-bg-elevated)"
    stroke="var(--ant-color-border)" />
  <path
    d="M15.248 45V36.3867H16.4141V45H15.248ZM18.2773 45V38.7246H19.2734V39.6094H19.2969C19.7852 38.8984 20.418 38.543 21.1953 38.543C21.4062 38.543 21.6074 38.5605 21.7988 38.5957C21.9902 38.6309 22.1855 38.6992 22.3848 38.8008C22.584 38.8984 22.7559 39.0273 22.9004 39.1875C23.0449 39.3438 23.1621 39.5547 23.252 39.8203C23.3457 40.082 23.3926 40.3848 23.3926 40.7285V45H22.332V41.1387C22.332 40.5684 22.2324 40.1523 22.0332 39.8906C21.834 39.625 21.4863 39.4922 20.9902 39.4922C20.8574 39.4922 20.7227 39.5098 20.5859 39.5449C20.4492 39.5762 20.3027 39.6406 20.1465 39.7383C19.9941 39.8359 19.8594 39.959 19.7422 40.1074C19.625 40.2559 19.5273 40.457 19.4492 40.7109C19.3711 40.9648 19.332 41.2539 19.332 41.5781V45H18.2773ZM24.8633 47.4844V38.7246H25.8594V39.6094H25.8828C25.9609 39.4961 26.0215 39.4121 26.0645 39.3574C26.1113 39.2988 26.1953 39.209 26.3164 39.0879C26.4375 38.9668 26.5566 38.875 26.6738 38.8125C26.791 38.7461 26.9453 38.6855 27.1367 38.6309C27.3281 38.5723 27.5332 38.543 27.752 38.543C28.2949 38.543 28.7656 38.6836 29.1641 38.9648C29.5664 39.2422 29.8672 39.6152 30.0664 40.084C30.2695 40.5527 30.3711 41.084 30.3711 41.6777C30.3711 41.998 30.3438 42.3125 30.2891 42.6211C30.2383 42.9297 30.1465 43.2422 30.0137 43.5586C29.8809 43.8711 29.7129 44.1465 29.5098 44.3848C29.3066 44.6191 29.041 44.8105 28.7129 44.959C28.3887 45.1074 28.0215 45.1816 27.6113 45.1816C27.2168 45.1816 26.877 45.1035 26.5918 44.9473C26.3105 44.7871 26.0938 44.584 25.9414 44.3379H25.918V47.4844H24.8633ZM25.8711 42.1582C25.8711 42.5527 25.9277 42.8965 26.041 43.1895C26.1543 43.4785 26.3008 43.6973 26.4805 43.8457C26.6641 43.9941 26.8477 44.1016 27.0312 44.168C27.2148 44.2344 27.4004 44.2676 27.5879 44.2676C28.1426 44.2676 28.5625 44.0449 28.8477 43.5996C29.1328 43.1543 29.2754 42.5684 29.2754 41.8418C29.2754 41.6973 29.2715 41.5684 29.2637 41.4551C29.2598 41.3418 29.2441 41.1992 29.2168 41.0273C29.1934 40.8555 29.1602 40.7051 29.1172 40.5762C29.0742 40.4473 29.0098 40.3125 28.9238 40.1719C28.8379 40.0273 28.7363 39.9082 28.6191 39.8145C28.502 39.7207 28.3535 39.6445 28.1738 39.5859C27.9941 39.5234 27.791 39.4922 27.5645 39.4922C26.4355 39.4922 25.8711 40.3809 25.8711 42.1582ZM31.6484 43.2363V38.7246H32.7031V42.8906C32.7031 43.8086 33.1074 44.2676 33.916 44.2676C34.2324 44.2676 34.5078 44.2031 34.7422 44.0742C34.9766 43.9453 35.1562 43.7754 35.2812 43.5645C35.4062 43.3496 35.498 43.127 35.5566 42.8965C35.6152 42.666 35.6445 42.4277 35.6445 42.1816V38.7246H36.6992V45H35.7031V44.0859L35.6797 44.0625C35.4453 44.4453 35.1758 44.7285 34.8711 44.9121C34.5664 45.0918 34.1719 45.1816 33.6875 45.1816C33.4922 45.1816 33.3027 45.1621 33.1191 45.123C32.9355 45.0879 32.752 45.0234 32.5684 44.9297C32.3887 44.832 32.2324 44.7129 32.0996 44.5723C31.9668 44.4277 31.8574 44.2422 31.7715 44.0156C31.6895 43.7852 31.6484 43.5254 31.6484 43.2363ZM37.6719 39.5977V38.7246H38.5215V36.9727H39.5762V38.7246H40.584V39.5977H39.5762V43.6816C39.5762 43.7754 39.5918 43.8555 39.623 43.9219C39.6582 43.9883 39.6953 44.0371 39.7344 44.0684C39.7773 44.0996 39.832 44.125 39.8984 44.1445C39.9688 44.1602 40.0234 44.1699 40.0625 44.1738C40.1016 44.1738 40.1523 44.1738 40.2148 44.1738H40.584V45C40.4785 45.0078 40.3633 45.0195 40.2383 45.0352C40.1172 45.0508 40.0195 45.0625 39.9453 45.0703C39.875 45.0781 39.8242 45.082 39.793 45.082C39.5391 45.082 39.3262 45.0488 39.1543 44.9824C38.9824 44.916 38.8516 44.8184 38.7617 44.6895C38.6719 44.5605 38.6094 44.4219 38.5742 44.2734C38.5391 44.1211 38.5215 43.9434 38.5215 43.7402V39.5977H37.6719Z"
    fill="var(--ant-color-text)" fill-opacity="0.4" />
  <line x1="12.5" y1="33" x2="12.5" y2="47" stroke="var(--ant-color-primary)" />
</svg>