<svg width="88" height="80" viewBox="0 0 88 80" fill="none" xmlns="http://www.w3.org/2000/svg">
  <rect width="88" height="80" rx="7" fill="var(--genie-color-bg-container)" />
  <g clip-path="url(#clip0_1581_145630)">
    <path
      d="M25.0468 25.8541C25.1083 25.8541 25.1586 25.8737 25.1977 25.9128C25.2396 25.9491 25.2605 25.9994 25.2605 26.0636C25.2605 26.1195 25.2382 26.1698 25.1935 26.2145C25.1488 26.2536 25.0999 26.2731 25.0468 26.2731C24.9854 26.2731 24.9351 26.2522 24.896 26.2103C24.8541 26.1684 24.8332 26.1195 24.8332 26.0636C24.8332 25.9994 24.8541 25.9491 24.896 25.9128C24.9323 25.8737 24.9826 25.8541 25.0468 25.8541ZM25.0468 27.3877C25.1083 27.3877 25.1586 27.4072 25.1977 27.4463C25.2396 27.4826 25.2605 27.5329 25.2605 27.5971C25.2605 27.653 25.2382 27.7033 25.1935 27.748C25.1488 27.7871 25.0999 27.8066 25.0468 27.8066C24.9854 27.8066 24.9351 27.7857 24.896 27.7438C24.8541 27.7019 24.8332 27.653 24.8332 27.5971C24.8332 27.5329 24.8541 27.4826 24.896 27.4463C24.9323 27.4072 24.9826 27.3877 25.0468 27.3877Z"
      fill="var(--ant-color-text)" />
    <path d="M23.5705 23.6855H10V28.3769H23.5705V23.6855Z" fill="var(--ant-color-border)" />
    <path
      d="M25.0468 39.9284C25.1083 39.9284 25.1586 39.9479 25.1977 39.987C25.2396 40.0233 25.2605 40.0736 25.2605 40.1379C25.2605 40.1937 25.2382 40.244 25.1935 40.2887C25.1488 40.3278 25.0999 40.3474 25.0468 40.3474C24.9854 40.3474 24.9351 40.3264 24.896 40.2845C24.8541 40.2426 24.8332 40.1937 24.8332 40.1379C24.8332 40.0736 24.8541 40.0233 24.896 39.987C24.9323 39.9479 24.9826 39.9284 25.0468 39.9284ZM25.0468 41.4619C25.1083 41.4619 25.1586 41.4814 25.1977 41.5205C25.2396 41.5568 25.2605 41.6071 25.2605 41.6714C25.2605 41.7272 25.2382 41.7775 25.1935 41.8222C25.1488 41.8613 25.0999 41.8809 25.0468 41.8809C24.9854 41.8809 24.9351 41.8599 24.896 41.818C24.8541 41.7761 24.8332 41.7272 24.8332 41.6714C24.8332 41.6071 24.8541 41.5568 24.896 41.5205C24.9323 41.4814 24.9826 41.4619 25.0468 41.4619Z"
      fill="var(--ant-color-text)" />
    <path fill-rule="evenodd" clip-rule="evenodd"
      d="M82.2365 21.4727H30.6514C30.5408 21.4727 30.4413 21.5167 30.3694 21.5884C30.2975 21.6601 30.2534 21.7594 30.2534 21.8689V29.2569C30.2534 29.3668 30.2976 29.4657 30.3693 29.5371C30.4414 29.6091 30.5412 29.6532 30.6514 29.6532H82.2365C82.3471 29.6532 82.4466 29.6091 82.5184 29.5375C82.5903 29.4658 82.6344 29.3665 82.6344 29.2569V21.8689C82.6344 21.7591 82.5902 21.6602 82.5186 21.5887C82.4464 21.5168 82.3466 21.4727 82.2365 21.4727Z"
      fill="var(--ant-color-bg-container)" stroke="var(--ant-color-border)" stroke-width="0.299279" />
    <path
      d="M35.8864 24.304H36.1085V24.6015H37.1685V24.7942H36.1085V25.1252H37.0135V25.3137H36.1085V25.6531H37.2774V25.8501H34.73V25.6531H35.8864V25.3137H35.0107V25.1252H35.8864V24.7942H34.8431V24.6015H35.8864V24.304ZM35.283 26.9059V27.2662H36.7244V26.9059H35.283ZM36.7244 26.7257V26.3612H35.283V26.7257H36.7244ZM35.283 27.4506V28.1252H35.0694V26.1685H36.9422V27.7984C36.9422 28.0023 36.8347 28.1042 36.6196 28.1042H36.2677L36.209 27.8989L36.5526 27.9115C36.6671 27.9115 36.7244 27.8584 36.7244 27.7523V27.4506H35.283ZM33.9255 24.3584C34.2188 24.5791 34.4632 24.7956 34.6588 25.0079L34.5037 25.1671C34.3138 24.9548 34.068 24.7369 33.7663 24.5135L33.9255 24.3584ZM33.4646 25.6112H34.311V27.5218C34.4367 27.4101 34.5861 27.2634 34.7593 27.0819L34.818 27.3249C34.5945 27.5595 34.3529 27.7732 34.0931 27.966L34.0051 27.7606C34.061 27.7104 34.0889 27.6559 34.0889 27.5972V25.8333H33.4646V25.6112ZM38.4632 25.4646H38.6769V26.1266H39.0917V26.3319H38.6769V26.9646L39.1042 26.8598V27.0735C38.9143 27.1238 38.7718 27.1601 38.6769 27.1824V28.1252H38.4632V27.2327C38.2704 27.2718 38.0135 27.3165 37.6922 27.3668L37.6587 27.1405C37.9632 27.1014 38.2313 27.0581 38.4632 27.0107V26.3319H37.776L37.7341 26.1475C37.8626 25.8682 37.9758 25.5302 38.0735 25.1336H37.6964V24.9157H38.1238C38.1657 24.7369 38.209 24.5288 38.2537 24.2914L38.4632 24.3375L38.3417 24.9157H39.1084V25.1336H38.2914C38.1964 25.4967 38.0889 25.8277 37.9688 26.1266H38.4632V25.4646ZM39.6741 25.2718H40.8598V25.4646H39.6741V25.2718ZM39.7537 28.1042L39.6992 27.9073L39.9003 27.9199C39.9953 27.9199 40.0428 27.871 40.0428 27.7732V27.3417H39.5107V28.1294H39.3054V25.8542H40.2439V27.8151C40.2439 28.0079 40.1517 28.1042 39.9674 28.1042H39.7537ZM39.5107 27.1573H40.0428V26.6964H39.5107V27.1573ZM39.5107 26.5162H40.0428V26.0428H39.5107V26.5162ZM40.5456 25.959H40.7299V27.4506H40.5456V25.959ZM40.621 28.1084L40.5749 27.9073C40.7313 27.9185 40.8403 27.9241 40.9017 27.9241C41.0023 27.9241 41.0525 27.8598 41.0525 27.7313V25.7579H41.2579V27.7816C41.2579 27.9995 41.1643 28.1084 40.9771 28.1084H40.621ZM40.3654 24.3124C40.7397 24.7788 41.1168 25.1448 41.4967 25.4101L41.3752 25.5945C40.9701 25.2984 40.6056 24.9408 40.2816 24.5219C39.9352 24.952 39.5609 25.3221 39.1587 25.6322L39.033 25.4436C39.4632 25.1308 39.8514 24.7537 40.1978 24.3124H40.3654ZM43.6042 25.2509C43.4115 24.8962 43.1768 24.6224 42.9003 24.4297L43.0888 24.304C43.4771 24.5805 43.7969 25.0526 44.0483 25.7202C44.4422 26.7313 44.9757 27.4506 45.6489 27.878L45.5106 28.0581C44.8207 27.6336 44.2634 26.871 43.8388 25.7704C43.8137 25.6978 43.7788 25.6126 43.7341 25.5149C43.4631 26.6266 42.8779 27.4785 41.9785 28.0707L41.8361 27.878C42.7523 27.2774 43.3416 26.4017 43.6042 25.2509ZM46.7005 25.7202V26.4911L46.6963 26.5246H47.8486V25.7202H46.7005ZM46.6838 26.7383C46.6419 27.2802 46.4841 27.7285 46.2103 28.0833L46.0427 27.9282C46.3193 27.5484 46.4617 27.0637 46.4701 26.4743V24.4883H49.5287V27.6224C49.5287 27.8961 49.3919 28.033 49.1181 28.033H48.6363L48.5776 27.8109C48.7452 27.8193 48.9002 27.8235 49.0427 27.8235C49.2159 27.8235 49.3025 27.7285 49.3025 27.5386V26.7383H48.0748V27.9869H47.8486V26.7383H46.6838ZM49.3025 26.5246V25.7202H48.0748V26.5246H49.3025ZM49.3025 25.5107V24.7104H48.0748V25.5107H49.3025ZM47.8486 24.7104H46.7005V25.5107H47.8486V24.7104ZM53.4379 25.0665H50.9575V25.9716H53.4379V25.0665ZM50.9575 26.1936C50.9407 26.9478 50.741 27.5986 50.3583 28.1461L50.1865 27.9911C50.5497 27.5023 50.7326 26.878 50.7354 26.1182V24.8403H52.1181C52.0427 24.6476 51.9589 24.4758 51.8667 24.3249L52.1055 24.283C52.1921 24.4506 52.2717 24.6364 52.3443 24.8403H53.6683V26.1936H50.9575ZM34.7258 33.8528V34.1126H34.4995V32.6042C34.2007 32.7048 33.906 32.79 33.6155 32.8598L33.5023 32.6461C34.2537 32.4813 34.8696 32.2704 35.3501 32.0135C35.1629 31.8514 34.8976 31.6713 34.554 31.473L34.7509 31.3515C35.0861 31.5526 35.3487 31.7369 35.5386 31.9045C35.9967 31.6308 36.3319 31.3068 36.5442 30.9325H34.9101C34.628 31.2006 34.2621 31.4394 33.8124 31.6489L33.6657 31.452C34.3836 31.1392 34.871 30.7551 35.128 30.2998L35.371 30.3291C35.3012 30.4604 35.216 30.5889 35.1155 30.7146H36.804V30.9199C36.4772 31.5288 35.8934 32.019 35.0526 32.3906H36.9129V34.1126H36.6825V33.8528H34.7258ZM36.6825 33.6308V32.6042H34.7258V33.6308H36.6825Z"
      fill="var(--ant-color-text)" fill-opacity="0.2" />
    <path
      d="M82.2365 36.0156H30.6514C30.5408 36.0156 30.4413 36.0597 30.3694 36.1313C30.2975 36.2031 30.2534 36.3023 30.2534 36.4119V43.7999C30.2534 43.9097 30.2976 44.0086 30.3693 44.0801C30.4414 44.1521 30.5412 44.1962 30.6514 44.1962H82.2365C82.3471 44.1962 82.4466 44.1521 82.5184 44.0805C82.5903 44.0087 82.6344 43.9095 82.6344 43.7999V36.4119C82.6344 36.3021 82.5902 36.2032 82.5186 36.1317C82.4464 36.0597 82.3466 36.0156 82.2365 36.0156Z"
      fill="var(--ant-color-bg-container)" stroke="var(--ant-color-border)" stroke-width="0.299279" />
    <path
      d="M35.8864 38.8469H36.1085V39.1444H37.1685V39.3372H36.1085V39.6682H37.0135V39.8567H36.1085V40.1961H37.2774V40.393H34.73V40.1961H35.8864V39.8567H35.0107V39.6682H35.8864V39.3372H34.8431V39.1444H35.8864V38.8469ZM35.283 41.4489V41.8092H36.7244V41.4489H35.283ZM36.7244 41.2687V40.9042H35.283V41.2687H36.7244ZM35.283 41.9936V42.6681H35.0694V40.7115H36.9422V42.3413C36.9422 42.5452 36.8347 42.6472 36.6196 42.6472H36.2677L36.209 42.4419L36.5526 42.4545C36.6671 42.4545 36.7244 42.4014 36.7244 42.2952V41.9936H35.283ZM33.9255 38.9014C34.2188 39.1221 34.4632 39.3386 34.6588 39.5509L34.5037 39.7101C34.3138 39.4978 34.068 39.2799 33.7663 39.0564L33.9255 38.9014ZM33.4646 40.1542H34.311V42.0648C34.4367 41.9531 34.5861 41.8064 34.7593 41.6249L34.818 41.8679C34.5945 42.1025 34.3529 42.3162 34.0931 42.5089L34.0051 42.3036C34.061 42.2533 34.0889 42.1989 34.0889 42.1402V40.3763H33.4646V40.1542ZM38.4632 40.0076H38.6769V40.6696H39.0917V40.8749H38.6769V41.5075L39.1042 41.4028V41.6165C38.9143 41.6668 38.7718 41.7031 38.6769 41.7254V42.6681H38.4632V41.7757C38.2704 41.8148 38.0135 41.8595 37.6922 41.9098L37.6587 41.6835C37.9632 41.6444 38.2313 41.6011 38.4632 41.5536V40.8749H37.776L37.7341 40.6905C37.8626 40.4112 37.9758 40.0732 38.0735 39.6765H37.6964V39.4587H38.1238C38.1657 39.2799 38.209 39.0718 38.2537 38.8344L38.4632 38.8805L38.3417 39.4587H39.1084V39.6765H38.2914C38.1964 40.0397 38.0889 40.3707 37.9688 40.6696H38.4632V40.0076ZM39.6741 39.8148H40.8598V40.0076H39.6741V39.8148ZM39.7537 42.6472L39.6992 42.4503L39.9003 42.4628C39.9953 42.4628 40.0428 42.414 40.0428 42.3162V41.8846H39.5107V42.6723H39.3054V40.3972H40.2439V42.3581C40.2439 42.5508 40.1517 42.6472 39.9674 42.6472H39.7537ZM39.5107 41.7003H40.0428V41.2394H39.5107V41.7003ZM39.5107 41.0592H40.0428V40.5858H39.5107V41.0592ZM40.5456 40.502H40.7299V41.9936H40.5456V40.502ZM40.621 42.6514L40.5749 42.4503C40.7313 42.4614 40.8403 42.467 40.9017 42.467C41.0023 42.467 41.0525 42.4028 41.0525 42.2743V40.3008H41.2579V42.3246C41.2579 42.5424 41.1643 42.6514 40.9771 42.6514H40.621ZM40.3654 38.8553C40.7397 39.3218 41.1168 39.6877 41.4967 39.9531L41.3752 40.1374C40.9701 39.8414 40.6056 39.4838 40.2816 39.0648C39.9352 39.495 39.5609 39.8651 39.1587 40.1751L39.033 39.9866C39.4632 39.6738 39.8514 39.2967 40.1978 38.8553H40.3654ZM43.6042 39.7939C43.4115 39.4391 43.1768 39.1654 42.9003 38.9726L43.0888 38.8469C43.4771 39.1235 43.7969 39.5955 44.0483 40.2631C44.4422 41.2743 44.9757 41.9936 45.6489 42.4209L45.5106 42.6011C44.8207 42.1765 44.2634 41.414 43.8388 40.3134C43.8137 40.2408 43.7788 40.1556 43.7341 40.0578C43.4631 41.1696 42.8779 42.0215 41.9785 42.6137L41.8361 42.4209C42.7523 41.8204 43.3416 40.9447 43.6042 39.7939ZM49.6754 39.2073V40.0243H49.4533V39.4168H46.4366V40.0243H46.2145V39.2073H47.857C47.8095 39.0928 47.7592 38.9824 47.7061 38.8763L47.9407 38.8344C47.9743 38.9098 48.0231 39.0341 48.0874 39.2073H49.6754ZM47.8444 41.4028H48.0706V42.2659H49.2061V41.5117H49.4324V42.6765H49.2061V42.4754H46.7424V42.6723H46.5204V41.5411H46.7424V42.2659H47.8444V41.4028ZM47.6977 39.5425C47.9044 39.7352 48.0623 39.9056 48.1712 40.0536L47.9994 40.1751C47.8821 40.0103 47.7257 39.8344 47.5301 39.6472L47.6977 39.5425ZM49.0092 39.7771C48.6041 40.2715 48.086 40.6765 47.4547 40.9922C47.4854 41.0397 47.5413 41.0634 47.6223 41.0634H48.4729C48.5818 41.0634 48.6586 41.0411 48.7033 40.9964C48.7676 40.9377 48.8095 40.7757 48.829 40.5103L49.0385 40.5774C49.0134 40.9014 48.9561 41.1011 48.8667 41.1765C48.7969 41.2352 48.681 41.2645 48.519 41.2645H47.5553C47.3849 41.2645 47.2787 41.2073 47.2368 41.0927C46.8905 41.2464 46.526 41.3749 46.1433 41.4782L46.0553 41.2855C46.4743 41.1737 46.857 41.0369 47.2033 40.8749V39.9992H47.4254V40.7659C48.0092 40.4615 48.4798 40.0886 48.8374 39.6472L49.0092 39.7771ZM49.16 40.0704C49.4533 40.4056 49.674 40.6989 49.822 40.9503L49.6418 41.0718C49.4603 40.7813 49.2438 40.4866 48.9924 40.1877L49.16 40.0704ZM46.9896 39.8902C46.8695 40.2701 46.6977 40.5983 46.4743 40.8749L46.2857 40.7575C46.5092 40.4922 46.6768 40.1891 46.7885 39.8483L46.9896 39.8902ZM34.8305 46.3427V48.4503H34.6169V48.1947H34.0973V48.5299H33.8836V46.7156C33.7775 46.9168 33.6671 47.1011 33.5526 47.2687L33.4353 47.0802C33.7733 46.583 33.9981 45.9992 34.1099 45.3288H33.5568V45.1109H34.9646V45.3288H34.3194C34.2607 45.7031 34.1713 46.0411 34.0512 46.3427H34.8305ZM34.0973 47.981H34.6169V46.5522H34.0973V47.981ZM35.4716 45.5927L35.6937 45.6137L35.5009 46.7031H36.4604L36.6825 45.2659H35.1741V45.0481H36.9297L36.6867 46.7031H37.1476C37.1476 47.6947 37.0931 48.2659 36.9841 48.4167C36.8752 48.5676 36.6462 48.643 36.297 48.643C36.1741 48.643 36.0456 48.6388 35.9115 48.6304L35.8445 48.4167L36.2425 48.4335C36.5666 48.4335 36.7607 48.3609 36.8249 48.2156C36.8948 48.0592 36.9297 47.6262 36.9297 46.9168H35.2453L35.4716 45.5927ZM35.0861 47.5159H36.5945V47.7338H35.0861V47.5159Z"
      fill="var(--ant-color-text)" fill-opacity="0.2" />
    <path
      d="M46.3243 50.4277H31.9934C30.9596 50.4277 30.1216 51.2679 30.1216 52.3043V56.9956C30.1216 58.032 30.9596 58.8722 31.9934 58.8722H46.3243C47.3581 58.8722 48.1961 58.032 48.1961 56.9956V52.3043C48.1961 51.2679 47.3581 50.4277 46.3243 50.4277Z"
      fill="var(--ant-color-primary)" />
    <path d="M56.7951 37.7598H32.9297V42.4511H56.7951V37.7598Z" fill="var(--genie-color-bg-container)" />
    <path d="M56.7951 23.2168H32.9297V27.9082H56.7951V23.2168Z" fill="var(--genie-color-bg-container)" />
    <path d="M23.5705 37.7598H10V42.4511H23.5705V37.7598Z" fill="var(--ant-color-border)" />
  </g>
  <defs>
    <clipPath id="clip0_1581_145630">
      <rect width="73" height="38" fill="white" transform="translate(10 21)" />
    </clipPath>
  </defs>
</svg>
