<svg width="88" height="80" viewBox="0 0 88 80" fill="none" xmlns="http://www.w3.org/2000/svg">
  <rect width="88" height="80" rx="7" fill="var(--genie-color-bg-container)" />
  <g clip-path="url(#clip0_1581_145549)">
    <path
      d="M21.6595 18.4496C21.6595 15.1594 18.9923 12.4922 15.7021 12.4922C12.4119 12.4922 9.74463 15.1594 9.74463 18.4496C9.74463 21.7398 12.4119 24.4071 15.7021 24.4071C18.9923 24.4071 21.6595 21.7398 21.6595 18.4496Z"
      fill="var(--ant-color-primary)" />
    <path
      d="M15.7018 20.6829C16.9356 20.6829 17.9359 19.6827 17.9359 18.4489C17.9359 17.2151 16.9356 16.2148 15.7018 16.2148C14.468 16.2148 13.4678 17.2151 13.4678 18.4489C13.4678 19.6827 14.468 20.6829 15.7018 20.6829Z"
      fill="var(--ant-color-bg-container)" />
    <path
      d="M27.9327 13.7821H28.4748V24.2076H27.9327V13.7821ZM29.8468 13.7821H30.3889V24.2076H29.8468V13.7821ZM31.7608 13.7821H32.303V24.2076H31.7608V13.7821ZM33.6749 13.7821H34.217V24.2076H33.6749V13.7821ZM35.589 13.7821H36.1311V24.2076H35.589V13.7821ZM37.503 13.7821H38.0452V24.2076H37.503V13.7821ZM39.4171 13.7821H39.9592V24.2076H39.4171V13.7821ZM41.3311 13.7821H41.8733V24.2076H41.3311V13.7821ZM43.2452 13.7821H43.7873V24.2076H43.2452V13.7821ZM45.1593 13.7821H45.7014V24.2076H45.1593V13.7821ZM47.0733 13.7821H47.6155V24.2076H47.0733V13.7821ZM48.9874 13.7821H49.5295V24.2076H48.9874V13.7821ZM50.9015 13.7821H51.4436V24.2076H50.9015V13.7821ZM52.8155 13.7821H53.3577V24.2076H52.8155V13.7821ZM54.7296 13.7821H55.2717V24.2076H54.7296V13.7821ZM56.6436 13.7821H57.1858V24.2076H56.6436V13.7821ZM58.5577 13.7821H59.0998V24.2076H58.5577V13.7821ZM60.4718 13.7821H61.0139V24.2076H60.4718V13.7821ZM62.3858 13.7821H62.928V24.2076H62.3858V13.7821ZM64.2999 13.7821H64.842V24.2076H64.2999V13.7821ZM66.214 13.7821H66.7561V24.2076H66.214V13.7821ZM68.128 13.7821H68.6702V24.2076H68.128V13.7821ZM70.0421 13.7821H70.5842V24.2076H70.0421V13.7821ZM71.9561 13.7821H72.4983V24.2076H71.9561V13.7821ZM73.8702 13.7821H74.4123V24.2076H73.8702V13.7821Z"
      fill="var(--ant-color-text)" fill-opacity="0.88" />
    <path
      d="M15.3297 69.4612C18.4143 69.4612 20.9148 66.9607 20.9148 63.8761C20.9148 60.7916 18.4143 58.291 15.3297 58.291C12.2452 58.291 9.74463 60.7916 9.74463 63.8761C9.74463 66.9607 12.2452 69.4612 15.3297 69.4612Z"
      fill="var(--genie-color-bg-container)" stroke="var(--ant-color-border)" stroke-width="0.744681" />
    <path
      d="M27.9327 58.4618H28.4748V68.8873H27.9327V58.4618ZM29.8468 58.4618H30.3889V68.8873H29.8468V58.4618ZM31.7608 58.4618H32.303V68.8873H31.7608V58.4618ZM33.6749 58.4618H34.217V68.8873H33.6749V58.4618ZM35.589 58.4618H36.1311V68.8873H35.589V58.4618ZM37.503 58.4618H38.0452V68.8873H37.503V58.4618ZM39.4171 58.4618H39.9592V68.8873H39.4171V58.4618ZM41.3311 58.4618H41.8733V68.8873H41.3311V58.4618ZM43.2452 58.4618H43.7873V68.8873H43.2452V58.4618ZM45.1593 58.4618H45.7014V68.8873H45.1593V58.4618ZM47.0733 58.4618H47.6155V68.8873H47.0733V58.4618ZM48.9874 58.4618H49.5295V68.8873H48.9874V58.4618ZM50.9015 58.4618H51.4436V68.8873H50.9015V58.4618ZM52.8155 58.4618H53.3577V68.8873H52.8155V58.4618ZM54.7296 58.4618H55.2717V68.8873H54.7296V58.4618ZM56.6436 58.4618H57.1858V68.8873H56.6436V58.4618ZM58.5577 58.4618H59.0998V68.8873H58.5577V58.4618ZM60.4718 58.4618H61.0139V68.8873H60.4718V58.4618ZM62.3858 58.4618H62.928V68.8873H62.3858V58.4618ZM64.2999 58.4618H64.842V68.8873H64.2999V58.4618ZM66.214 58.4618H66.7561V68.8873H66.214V58.4618ZM68.128 58.4618H68.6702V68.8873H68.128V58.4618ZM70.0421 58.4618H70.5842V68.8873H70.0421V58.4618ZM71.9561 58.4618H72.4983V68.8873H71.9561V58.4618ZM73.8702 58.4618H74.4123V68.8873H73.8702V58.4618Z"
      fill="var(--ant-color-text)" fill-opacity="0.2" />
    <path
      d="M15.3297 47.1194C18.4143 47.1194 20.9148 44.6189 20.9148 41.5343C20.9148 38.4498 18.4143 35.9492 15.3297 35.9492C12.2452 35.9492 9.74463 38.4498 9.74463 41.5343C9.74463 44.6189 12.2452 47.1194 15.3297 47.1194Z"
      fill="var(--ant-color-bg-container)" stroke="var(--ant-color-border)" stroke-width="0.744681" />
    <path
      d="M27.9327 36.1239H28.4748V46.5494H27.9327V36.1239ZM29.8468 36.1239H30.3889V46.5494H29.8468V36.1239ZM31.7608 36.1239H32.303V46.5494H31.7608V36.1239ZM33.6749 36.1239H34.217V46.5494H33.6749V36.1239ZM35.589 36.1239H36.1311V46.5494H35.589V36.1239ZM37.503 36.1239H38.0452V46.5494H37.503V36.1239ZM39.4171 36.1239H39.9592V46.5494H39.4171V36.1239ZM41.3311 36.1239H41.8733V46.5494H41.3311V36.1239ZM43.2452 36.1239H43.7873V46.5494H43.2452V36.1239ZM45.1593 36.1239H45.7014V46.5494H45.1593V36.1239ZM47.0733 36.1239H47.6155V46.5494H47.0733V36.1239ZM48.9874 36.1239H49.5295V46.5494H48.9874V36.1239ZM50.9015 36.1239H51.4436V46.5494H50.9015V36.1239ZM52.8155 36.1239H53.3577V46.5494H52.8155V36.1239ZM54.7296 36.1239H55.2717V46.5494H54.7296V36.1239ZM56.6436 36.1239H57.1858V46.5494H56.6436V36.1239ZM58.5577 36.1239H59.0998V46.5494H58.5577V36.1239ZM60.4718 36.1239H61.0139V46.5494H60.4718V36.1239ZM62.3858 36.1239H62.928V46.5494H62.3858V36.1239ZM64.2999 36.1239H64.842V46.5494H64.2999V36.1239ZM66.214 36.1239H66.7561V46.5494H66.214V36.1239ZM68.128 36.1239H68.6702V46.5494H68.128V36.1239ZM70.0421 36.1239H70.5842V46.5494H70.0421V36.1239ZM71.9561 36.1239H72.4983V46.5494H71.9561V36.1239ZM73.8702 36.1239H74.4123V46.5494H73.8702V36.1239Z"
      fill="var(--ant-color-text)" fill-opacity="0.88" />
  </g>
  <defs>
    <clipPath id="clip0_1581_145549">
      <rect width="70" height="59.5745" fill="var(--ant-color-bg-container)" transform="translate(9 11)" />
    </clipPath>
  </defs>
</svg>
