<svg width="88" height="80" viewBox="0 0 88 80" fill="none" xmlns="http://www.w3.org/2000/svg">
  <rect width="88" height="80" rx="7" fill="var(--genie-color-bg-container)" />
  <g clip-path="url(#clip0_1581_145566)">
    <rect width="72.6471" height="19" transform="translate(8 31)" fill="var(--ant-color-bg-container)" />
    <path opacity="0.15"
      d="M76.444 31.5762H12.2024C10.2129 31.5762 8.6001 33.1228 8.6001 35.0307V45.9701C8.6001 47.878 10.2129 49.4247 12.2024 49.4247H76.444C78.4336 49.4247 80.0464 47.878 80.0464 45.9701V35.0307C80.0464 33.1228 78.4336 31.5762 76.444 31.5762Z"
      stroke="var(--ant-color-text)" stroke-width="0.600389" />
    <path
      d="M16.0596 36.5155H16.4967V44.9209H16.0596V36.5155ZM17.6028 36.5155H18.0399V44.9209H17.6028V36.5155ZM19.146 36.5155H19.5831V44.9209H19.146V36.5155ZM20.6892 36.5155H21.1263V44.9209H20.6892V36.5155ZM22.2324 36.5155H22.6695V44.9209H22.2324V36.5155ZM23.7756 36.5155H24.2127V44.9209H23.7756V36.5155ZM25.3188 36.5155H25.7558V44.9209H25.3188V36.5155ZM26.862 36.5155H27.299V44.9209H26.862V36.5155ZM28.4051 36.5155H28.8422V44.9209H28.4051V36.5155ZM29.9483 36.5155H30.3854V44.9209H29.9483V36.5155ZM31.4915 36.5155H31.9286V44.9209H31.4915V36.5155ZM33.0347 36.5155H33.4718V44.9209H33.0347V36.5155ZM34.5779 36.5155H35.015V44.9209H34.5779V36.5155ZM36.1211 36.5155H36.5582V44.9209H36.1211V36.5155ZM37.6643 36.5155H38.1013V44.9209H37.6643V36.5155ZM39.2075 36.5155H39.6445V44.9209H39.2075V36.5155ZM40.7506 36.5155H41.1877V44.9209H40.7506V36.5155ZM42.2938 36.5155H42.7309V44.9209H42.2938V36.5155ZM43.837 36.5155H44.2741V44.9209H43.837V36.5155ZM45.3802 36.5155H45.8173V44.9209H45.3802V36.5155ZM46.9234 36.5155H47.3605V44.9209H46.9234V36.5155ZM48.4666 36.5155H48.9037V44.9209H48.4666V36.5155ZM50.0098 36.5155H50.4468V44.9209H50.0098V36.5155ZM51.5529 36.5155H51.99V44.9209H51.5529V36.5155ZM53.0961 36.5155H53.5332V44.9209H53.0961V36.5155Z"
      fill="var(--ant-color-text)" />
    <g opacity="0.65">
      <path
        d="M74.3945 38.4863H73.7789C73.737 38.4863 73.6976 38.506 73.673 38.5383L71.341 41.6208L69.009 38.5383C68.9843 38.506 68.9449 38.4863 68.9031 38.4863H68.2875C68.2341 38.4863 68.2029 38.5446 68.2341 38.5863L71.1284 42.4127C71.2335 42.5513 71.4485 42.5513 71.5528 42.4127L74.4471 38.5863C74.4791 38.5446 74.4479 38.4863 74.3945 38.4863Z"
        fill="var(--ant-color-primary)" />
    </g>
  </g>
  <defs>
    <clipPath id="clip0_1581_145566">
      <rect width="72.6471" height="19" fill="var(--ant-color-bg-container)" transform="translate(8 31)" />
    </clipPath>
  </defs>
</svg>
