<svg width="88" height="80" viewBox="0 0 88 80" fill="none" xmlns="http://www.w3.org/2000/svg">
  <rect width="88" height="80" rx="7" fill="var(--genie-color-bg-container)" />
  <path
    d="M77.2581 30H11.6774C9.64644 30 8 31.6464 8 33.6774V45.3226C8 47.3536 9.64644 49 11.6774 49H77.2581C79.289 49 80.9355 47.3536 80.9355 45.3226V33.6774C80.9355 31.6464 79.289 30 77.2581 30Z"
    fill="var(--ant-color-bg-container)" stroke="var(--ant-color-border)" stroke-width="0.612903" />
  <path
    d="M15.8086 39.0078V38.4492C15.9544 38.4388 16.0742 38.4284 16.168 38.418C16.2617 38.4076 16.3607 38.3919 16.4648 38.3711C16.569 38.3503 16.6536 38.3242 16.7188 38.293C16.7839 38.2591 16.849 38.2174 16.9141 38.168C16.9818 38.1159 17.0378 38.0534 17.082 37.9805C17.1289 37.9076 17.1719 37.8216 17.2109 37.7227C17.2526 37.6237 17.2891 37.5078 17.3203 37.375H17.8711V43H17.1211V39.0078H15.8086ZM19.9217 40.7969C19.9087 40.6224 19.9022 40.4453 19.9022 40.2656C19.9022 40.0859 19.9087 39.9102 19.9217 39.7383C19.9373 39.5638 19.9634 39.3789 19.9998 39.1836C20.0389 38.9857 20.0884 38.8034 20.1483 38.6367C20.2108 38.4674 20.2915 38.3047 20.3905 38.1484C20.492 37.9896 20.6079 37.8542 20.7381 37.7422C20.8683 37.6302 21.0259 37.5417 21.2108 37.4766C21.3983 37.4089 21.604 37.375 21.828 37.375C22.0519 37.375 22.2564 37.4089 22.4412 37.4766C22.6287 37.5417 22.7876 37.6302 22.9178 37.7422C23.048 37.8542 23.1639 37.9896 23.2655 38.1484C23.367 38.3047 23.4478 38.4674 23.5077 38.6367C23.5676 38.806 23.617 38.9883 23.6561 39.1836C23.6952 39.3789 23.7212 39.5638 23.7342 39.7383C23.7498 39.9102 23.7577 40.0859 23.7577 40.2656C23.7577 40.4453 23.7498 40.6224 23.7342 40.7969C23.7212 40.9688 23.6952 41.1523 23.6561 41.3477C23.617 41.543 23.5676 41.7253 23.5077 41.8945C23.4478 42.0612 23.367 42.224 23.2655 42.3828C23.1639 42.5417 23.048 42.6771 22.9178 42.7891C22.7876 42.8984 22.6287 42.9857 22.4412 43.0508C22.2564 43.1185 22.0519 43.1523 21.828 43.1523C21.604 43.1523 21.3983 43.1185 21.2108 43.0508C21.0259 42.9857 20.8683 42.8984 20.7381 42.7891C20.6079 42.6771 20.492 42.5417 20.3905 42.3828C20.2915 42.224 20.2108 42.0612 20.1483 41.8945C20.0884 41.7253 20.0389 41.543 19.9998 41.3477C19.9634 41.1523 19.9373 40.9688 19.9217 40.7969ZM20.9412 38.5977C20.7485 38.9883 20.6522 39.5443 20.6522 40.2656C20.6522 40.987 20.7485 41.543 20.9412 41.9336C21.1366 42.3242 21.4321 42.5195 21.828 42.5195C22.2238 42.5195 22.5181 42.3242 22.7108 41.9336C22.9061 41.543 23.0037 40.987 23.0037 40.2656C23.0037 39.5443 22.9061 38.9883 22.7108 38.5977C22.5181 38.2044 22.2238 38.0078 21.828 38.0078C21.4321 38.0078 21.1366 38.2044 20.9412 38.5977ZM24.9059 43V42.1523H25.738V43H24.9059ZM24.9059 39.7188V38.8711H25.738V39.7188H24.9059ZM26.9136 40.7969C26.9006 40.6224 26.8941 40.4453 26.8941 40.2656C26.8941 40.0859 26.9006 39.9102 26.9136 39.7383C26.9292 39.5638 26.9553 39.3789 26.9917 39.1836C27.0308 38.9857 27.0803 38.8034 27.1402 38.6367C27.2027 38.4674 27.2834 38.3047 27.3823 38.1484C27.4839 37.9896 27.5998 37.8542 27.73 37.7422C27.8602 37.6302 28.0178 37.5417 28.2027 37.4766C28.3902 37.4089 28.5959 37.375 28.8198 37.375C29.0438 37.375 29.2482 37.4089 29.4331 37.4766C29.6206 37.5417 29.7795 37.6302 29.9097 37.7422C30.0399 37.8542 30.1558 37.9896 30.2573 38.1484C30.3589 38.3047 30.4396 38.4674 30.4995 38.6367C30.5594 38.806 30.6089 38.9883 30.648 39.1836C30.687 39.3789 30.7131 39.5638 30.7261 39.7383C30.7417 39.9102 30.7495 40.0859 30.7495 40.2656C30.7495 40.4453 30.7417 40.6224 30.7261 40.7969C30.7131 40.9688 30.687 41.1523 30.648 41.3477C30.6089 41.543 30.5594 41.7253 30.4995 41.8945C30.4396 42.0612 30.3589 42.224 30.2573 42.3828C30.1558 42.5417 30.0399 42.6771 29.9097 42.7891C29.7795 42.8984 29.6206 42.9857 29.4331 43.0508C29.2482 43.1185 29.0438 43.1523 28.8198 43.1523C28.5959 43.1523 28.3902 43.1185 28.2027 43.0508C28.0178 42.9857 27.8602 42.8984 27.73 42.7891C27.5998 42.6771 27.4839 42.5417 27.3823 42.3828C27.2834 42.224 27.2027 42.0612 27.1402 41.8945C27.0803 41.7253 27.0308 41.543 26.9917 41.3477C26.9553 41.1523 26.9292 40.9688 26.9136 40.7969ZM27.9331 38.5977C27.7404 38.9883 27.6441 39.5443 27.6441 40.2656C27.6441 40.987 27.7404 41.543 27.9331 41.9336C28.1284 42.3242 28.424 42.5195 28.8198 42.5195C29.2157 42.5195 29.5099 42.3242 29.7027 41.9336C29.898 41.543 29.9956 40.987 29.9956 40.2656C29.9956 39.5443 29.898 38.9883 29.7027 38.5977C29.5099 38.2044 29.2157 38.0078 28.8198 38.0078C28.424 38.0078 28.1284 38.2044 27.9331 38.5977ZM31.5189 40.7969C31.5059 40.6224 31.4994 40.4453 31.4994 40.2656C31.4994 40.0859 31.5059 39.9102 31.5189 39.7383C31.5345 39.5638 31.5606 39.3789 31.597 39.1836C31.6361 38.9857 31.6856 38.8034 31.7455 38.6367C31.808 38.4674 31.8887 38.3047 31.9877 38.1484C32.0892 37.9896 32.2051 37.8542 32.3353 37.7422C32.4655 37.6302 32.6231 37.5417 32.808 37.4766C32.9955 37.4089 33.2012 37.375 33.4252 37.375C33.6491 37.375 33.8535 37.4089 34.0384 37.4766C34.2259 37.5417 34.3848 37.6302 34.515 37.7422C34.6452 37.8542 34.7611 37.9896 34.8627 38.1484C34.9642 38.3047 35.0449 38.4674 35.1048 38.6367C35.1647 38.806 35.2142 38.9883 35.2533 39.1836C35.2923 39.3789 35.3184 39.5638 35.3314 39.7383C35.347 39.9102 35.3548 40.0859 35.3548 40.2656C35.3548 40.4453 35.347 40.6224 35.3314 40.7969C35.3184 40.9688 35.2923 41.1523 35.2533 41.3477C35.2142 41.543 35.1647 41.7253 35.1048 41.8945C35.0449 42.0612 34.9642 42.224 34.8627 42.3828C34.7611 42.5417 34.6452 42.6771 34.515 42.7891C34.3848 42.8984 34.2259 42.9857 34.0384 43.0508C33.8535 43.1185 33.6491 43.1523 33.4252 43.1523C33.2012 43.1523 32.9955 43.1185 32.808 43.0508C32.6231 42.9857 32.4655 42.8984 32.3353 42.7891C32.2051 42.6771 32.0892 42.5417 31.9877 42.3828C31.8887 42.224 31.808 42.0612 31.7455 41.8945C31.6856 41.7253 31.6361 41.543 31.597 41.3477C31.5606 41.1523 31.5345 40.9688 31.5189 40.7969ZM32.5384 38.5977C32.3457 38.9883 32.2494 39.5443 32.2494 40.2656C32.2494 40.987 32.3457 41.543 32.5384 41.9336C32.7337 42.3242 33.0293 42.5195 33.4252 42.5195C33.821 42.5195 34.1153 42.3242 34.308 41.9336C34.5033 41.543 34.6009 40.987 34.6009 40.2656C34.6009 39.5443 34.5033 38.9883 34.308 38.5977C34.1153 38.2044 33.821 38.0078 33.4252 38.0078C33.0293 38.0078 32.7337 38.2044 32.5384 38.5977ZM36.5031 43V42.1523H37.3352V43H36.5031ZM36.5031 39.7188V38.8711H37.3352V39.7188H36.5031ZM38.5108 40.7969C38.4978 40.6224 38.4912 40.4453 38.4912 40.2656C38.4912 40.0859 38.4978 39.9102 38.5108 39.7383C38.5264 39.5638 38.5524 39.3789 38.5889 39.1836C38.628 38.9857 38.6774 38.8034 38.7373 38.6367C38.7998 38.4674 38.8806 38.3047 38.9795 38.1484C39.0811 37.9896 39.197 37.8542 39.3272 37.7422C39.4574 37.6302 39.6149 37.5417 39.7998 37.4766C39.9873 37.4089 40.1931 37.375 40.417 37.375C40.641 37.375 40.8454 37.4089 41.0303 37.4766C41.2178 37.5417 41.3767 37.6302 41.5069 37.7422C41.6371 37.8542 41.753 37.9896 41.8545 38.1484C41.9561 38.3047 42.0368 38.4674 42.0967 38.6367C42.1566 38.806 42.2061 38.9883 42.2452 39.1836C42.2842 39.3789 42.3103 39.5638 42.3233 39.7383C42.3389 39.9102 42.3467 40.0859 42.3467 40.2656C42.3467 40.4453 42.3389 40.6224 42.3233 40.7969C42.3103 40.9688 42.2842 41.1523 42.2452 41.3477C42.2061 41.543 42.1566 41.7253 42.0967 41.8945C42.0368 42.0612 41.9561 42.224 41.8545 42.3828C41.753 42.5417 41.6371 42.6771 41.5069 42.7891C41.3767 42.8984 41.2178 42.9857 41.0303 43.0508C40.8454 43.1185 40.641 43.1523 40.417 43.1523C40.1931 43.1523 39.9873 43.1185 39.7998 43.0508C39.6149 42.9857 39.4574 42.8984 39.3272 42.7891C39.197 42.6771 39.0811 42.5417 38.9795 42.3828C38.8806 42.224 38.7998 42.0612 38.7373 41.8945C38.6774 41.7253 38.628 41.543 38.5889 41.3477C38.5524 41.1523 38.5264 40.9688 38.5108 40.7969ZM39.5303 38.5977C39.3376 38.9883 39.2412 39.5443 39.2412 40.2656C39.2412 40.987 39.3376 41.543 39.5303 41.9336C39.7256 42.3242 40.0212 42.5195 40.417 42.5195C40.8129 42.5195 41.1071 42.3242 41.2998 41.9336C41.4952 41.543 41.5928 40.987 41.5928 40.2656C41.5928 39.5443 41.4952 38.9883 41.2998 38.5977C41.1071 38.2044 40.8129 38.0078 40.417 38.0078C40.0212 38.0078 39.7256 38.2044 39.5303 38.5977ZM43.1161 40.7969C43.1031 40.6224 43.0966 40.4453 43.0966 40.2656C43.0966 40.0859 43.1031 39.9102 43.1161 39.7383C43.1317 39.5638 43.1578 39.3789 43.1942 39.1836C43.2333 38.9857 43.2828 38.8034 43.3427 38.6367C43.4052 38.4674 43.4859 38.3047 43.5848 38.1484C43.6864 37.9896 43.8023 37.8542 43.9325 37.7422C44.0627 37.6302 44.2203 37.5417 44.4052 37.4766C44.5927 37.4089 44.7984 37.375 45.0223 37.375C45.2463 37.375 45.4507 37.4089 45.6356 37.4766C45.8231 37.5417 45.982 37.6302 46.1122 37.7422C46.2424 37.8542 46.3583 37.9896 46.4598 38.1484C46.5614 38.3047 46.6421 38.4674 46.702 38.6367C46.7619 38.806 46.8114 38.9883 46.8505 39.1836C46.8895 39.3789 46.9156 39.5638 46.9286 39.7383C46.9442 39.9102 46.952 40.0859 46.952 40.2656C46.952 40.4453 46.9442 40.6224 46.9286 40.7969C46.9156 40.9688 46.8895 41.1523 46.8505 41.3477C46.8114 41.543 46.7619 41.7253 46.702 41.8945C46.6421 42.0612 46.5614 42.224 46.4598 42.3828C46.3583 42.5417 46.2424 42.6771 46.1122 42.7891C45.982 42.8984 45.8231 42.9857 45.6356 43.0508C45.4507 43.1185 45.2463 43.1523 45.0223 43.1523C44.7984 43.1523 44.5927 43.1185 44.4052 43.0508C44.2203 42.9857 44.0627 42.8984 43.9325 42.7891C43.8023 42.6771 43.6864 42.5417 43.5848 42.3828C43.4859 42.224 43.4052 42.0612 43.3427 41.8945C43.2828 41.7253 43.2333 41.543 43.1942 41.3477C43.1578 41.1523 43.1317 40.9688 43.1161 40.7969ZM44.1356 38.5977C43.9429 38.9883 43.8466 39.5443 43.8466 40.2656C43.8466 40.987 43.9429 41.543 44.1356 41.9336C44.3309 42.3242 44.6265 42.5195 45.0223 42.5195C45.4182 42.5195 45.7124 42.3242 45.9052 41.9336C46.1005 41.543 46.1981 40.987 46.1981 40.2656C46.1981 39.5443 46.1005 38.9883 45.9052 38.5977C45.7124 38.2044 45.4182 38.0078 45.0223 38.0078C44.6265 38.0078 44.3309 38.2044 44.1356 38.5977Z"
    fill="var(--ant-color-text)" />
  <g opacity="0.65">
    <path
      d="M72.048 35.7461C74.1211 35.7461 75.802 37.427 75.802 39.5001C75.802 41.5732 74.1211 43.2542 72.048 43.2542C69.9749 43.2542 68.2939 41.5732 68.2939 39.5001C68.2939 37.427 69.9749 35.7461 72.048 35.7461ZM72.048 36.3829C70.3268 36.3829 68.9308 37.779 68.9308 39.5001C68.9308 41.2213 70.3268 42.6173 72.048 42.6173C73.7691 42.6173 75.1652 41.2213 75.1652 39.5001C75.1652 37.779 73.7691 36.3829 72.048 36.3829ZM72.2499 37.5561C72.2868 37.5561 72.317 37.5862 72.317 37.6231V39.697L73.5119 40.561C73.542 40.5819 73.5488 40.6238 73.527 40.6548L73.2873 40.9816C73.2655 41.011 73.2236 41.0177 73.1935 40.9959L71.8075 39.9853C71.7899 39.9727 71.7798 39.9526 71.7798 39.9308V37.6231C71.7798 37.5862 71.81 37.5561 71.8469 37.5561H72.2499Z"
      fill="var(--ant-color-primary)" />
  </g>
</svg>
