<svg width="88" height="80" viewBox="0 0 88 80" fill="none" xmlns="http://www.w3.org/2000/svg">
  <rect width="88" height="80" rx="7" fill="var(--genie-color-bg-container)" />
  <g opacity="0.88">
    <path fill-rule="evenodd" clip-rule="evenodd"
      d="M71.5007 30C72.5058 30 73.4157 30.4071 74.0744 31.0653C74.7331 31.7234 75.1405 32.6325 75.1405 33.6365V46.8594C75.1405 47.8632 74.7327 48.772 74.0741 49.43C73.415 50.0885 72.5048 50.4959 71.5007 50.4959H15.9704C14.9645 50.4959 14.0539 50.0896 13.395 49.431C12.7372 48.7733 12.3306 47.8643 12.3306 46.8573V33.6386C12.3306 32.6342 12.7384 31.7248 13.397 31.0665C14.0561 30.4076 14.9663 30 15.9704 30H71.5007Z"
      fill="var(--ant-color-bg-container)" stroke="var(--ant-color-text)" stroke-opacity="0.15"
      stroke-width="0.661157" />
    <path
      d="M35.1552 37.0258H35.7198V41.0801C35.7198 41.7959 35.8741 42.3296 36.1826 42.6814C36.5159 43.064 37.0311 43.2553 37.7284 43.2553C38.4257 43.2553 38.941 43.064 39.2742 42.6814C39.5827 42.3173 39.737 41.7835 39.737 41.0801V37.0258H40.3016V41.0801C40.3016 41.9316 40.0949 42.5888 39.6815 43.0516C39.2433 43.5268 38.5923 43.7644 37.7284 43.7644C36.8645 43.7644 36.2166 43.5299 35.7846 43.0609C35.365 42.6042 35.1552 41.944 35.1552 41.0801V37.0258ZM43.7741 38.7197C44.4529 38.7197 44.9897 38.9758 45.3847 39.488C45.7364 39.9508 45.9123 40.5401 45.9123 41.2559C45.9123 41.9532 45.7395 42.5364 45.3939 43.0053C44.999 43.5113 44.4652 43.7644 43.7926 43.7644C43.0274 43.7644 42.469 43.3879 42.1172 42.6351V45.4675H41.5619V38.8493H42.0895V39.7934C42.4412 39.0776 43.0027 38.7197 43.7741 38.7197ZM43.7093 39.1918C43.1909 39.1918 42.7868 39.3954 42.4967 39.8027C42.2314 40.1606 42.0987 40.6327 42.0987 41.2189V41.3207C42.0987 41.9008 42.2406 42.3728 42.5245 42.7369C42.8145 43.1072 43.2033 43.2923 43.6908 43.2923C44.2276 43.2923 44.6473 43.0948 44.9496 42.6999C45.2088 42.3358 45.3384 41.8545 45.3384 41.2559C45.3384 40.6574 45.2119 40.176 44.9589 39.812C44.6627 39.3985 44.2462 39.1918 43.7093 39.1918ZM47.0709 36.8963H47.6263V43.6348H47.0709V36.8963ZM51.0569 38.7197C51.7604 38.7197 52.325 38.9727 52.7508 39.4787C53.1396 39.9477 53.3339 40.537 53.3339 41.2467C53.3339 41.944 53.1396 42.5302 52.7508 43.0053C52.3188 43.5113 51.7542 43.7644 51.0569 43.7644C50.3596 43.7644 49.795 43.5113 49.363 43.0053C48.9743 42.5302 48.7799 41.944 48.7799 41.2467C48.7799 40.537 48.9774 39.9477 49.3723 39.4787C49.7857 38.9727 50.3473 38.7197 51.0569 38.7197ZM51.0569 39.201C50.5077 39.201 50.0788 39.4109 49.7703 39.8305C49.4864 40.1945 49.3445 40.6666 49.3445 41.2467C49.3445 41.8206 49.4864 42.2895 49.7703 42.6536C50.085 43.0732 50.5139 43.283 51.0569 43.283C51.6061 43.283 52.0381 43.0732 52.3528 42.6536C52.6366 42.2648 52.7786 41.7959 52.7786 41.2467C52.7786 40.679 52.6366 40.2069 52.3528 39.8305C52.0442 39.4109 51.6123 39.201 51.0569 39.201ZM56.3434 38.7197C57.016 38.7197 57.5127 38.9018 57.8336 39.2658C58.1175 39.5806 58.2594 40.0094 58.2594 40.5525V43.6348H57.7318V42.7184C57.5343 43.0023 57.2751 43.2398 56.9543 43.4311C56.5778 43.6533 56.1613 43.7644 55.7047 43.7644C55.2357 43.7644 54.8562 43.644 54.5662 43.4034C54.2761 43.1565 54.1311 42.8264 54.1311 42.4129C54.1311 41.802 54.381 41.3577 54.8809 41.0801C55.282 40.8517 55.8158 40.7376 56.4822 40.7376L57.704 40.7283V40.5525C57.704 39.6453 57.2412 39.1918 56.3156 39.1918C55.8898 39.1918 55.5566 39.2813 55.3159 39.4602C55.0444 39.6392 54.8809 39.9169 54.8253 40.2933H54.2792C54.3533 39.7564 54.5785 39.3553 54.9549 39.09C55.3005 38.8431 55.7633 38.7197 56.3434 38.7197ZM57.704 41.1819L56.51 41.1911C55.3005 41.1973 54.6958 41.6015 54.6958 42.4037C54.6958 42.669 54.7976 42.885 55.0012 43.0516C55.1987 43.2182 55.4702 43.3015 55.8158 43.3015C56.3156 43.3015 56.7599 43.1349 57.1486 42.8017C57.5189 42.4747 57.704 42.1198 57.704 41.7372V41.1819ZM63.0333 36.8963H63.5887V43.6348H63.0611V42.6906C62.7279 43.4064 62.1694 43.7644 61.3857 43.7644C60.7008 43.7644 60.1608 43.5113 59.7659 43.0053C59.4142 42.5425 59.2383 41.9532 59.2383 41.2374C59.2383 40.5339 59.4142 39.9508 59.7659 39.488C60.1485 38.9758 60.6792 38.7197 61.358 38.7197C62.1232 38.7197 62.6816 39.0992 63.0333 39.8582V36.8963ZM61.4598 39.1918C60.9168 39.1918 60.4971 39.3954 60.201 39.8027C59.9356 40.1483 59.8029 40.6265 59.8029 41.2374C59.8029 41.836 59.9325 42.3173 60.1917 42.6814C60.4817 43.0886 60.8983 43.2923 61.4413 43.2923C61.9596 43.2923 62.3638 43.0948 62.6538 42.6999C62.9192 42.3296 63.0519 41.8668 63.0519 41.3115V41.2004C63.0519 40.6203 62.9099 40.1421 62.6261 39.7657C62.336 39.3831 61.9473 39.1918 61.4598 39.1918Z"
      fill="var(--ant-color-text)" fill-opacity="0.88" />
    <path fill-rule="evenodd" clip-rule="evenodd"
      d="M23.5499 38.4926H24.2179V41.5506C24.2179 41.5903 24.2505 41.6229 24.2902 41.6229H24.8326C24.8724 41.6229 24.9049 41.5903 24.9049 41.5506V38.4926H25.5747C25.6353 38.4926 25.6687 38.423 25.6317 38.376L24.6193 37.0942C24.5903 37.0571 24.5343 37.0571 24.5054 37.0942L23.493 38.3751C23.4559 38.423 23.4894 38.4926 23.5499 38.4926ZM27.8707 41.2794H27.3283C27.2886 41.2794 27.256 41.3119 27.256 41.3517V42.7437H21.8686V41.3517C21.8686 41.3119 21.8361 41.2794 21.7963 41.2794H21.254C21.2142 41.2794 21.1816 41.3119 21.1816 41.3517V43.1415C21.1816 43.3015 21.3109 43.4307 21.4709 43.4307H27.6537C27.8137 43.4307 27.943 43.3015 27.943 43.1415V41.3517C27.943 41.3119 27.9105 41.2794 27.8707 41.2794Z"
      fill="var(--ant-color-text)" />
  </g>
</svg>
